<svg width="21" height="16" viewBox="0 0 21 16" fill="none" xmlns="http://www.w3.org/2000/svg">
<path d="M13.82 0.26001C13.6214 0.615697 13.4444 0.983029 13.29 1.36001C11.7727 1.12006 10.2272 1.12006 8.70998 1.36001C8.55557 0.983029 8.37858 0.615697 8.17998 0.26001C6.75077 0.504211 5.36138 0.941547 4.04998 1.56001C1.70492 4.9443 0.641415 9.05296 1.04998 13.15C2.57822 14.2989 4.29344 15.1751 6.11998 15.74C6.53589 15.1906 6.90708 14.6087 7.22998 14C6.63405 13.7803 6.06127 13.5023 5.51998 13.17C5.66844 13.0712 5.80888 12.9609 5.93998 12.84C7.51844 13.6003 9.24795 13.9952 11 13.9952C12.752 13.9952 14.4815 13.6003 16.06 12.84C16.2 12.96 16.34 13.07 16.48 13.17C15.9357 13.4997 15.3635 13.7807 14.77 14.01C15.0795 14.6325 15.4408 15.228 15.85 15.79C17.6742 15.227 19.3865 14.3506 20.91 13.2C21.3284 9.10221 20.264 4.99019 17.91 1.61001C16.6133 0.978747 15.2377 0.52468 13.82 0.26001ZM7.67998 10.81C7.17956 10.7741 6.71252 10.5457 6.3769 10.1728C6.04128 9.79987 5.86317 9.31143 5.87998 8.81001C5.86064 8.30793 6.03786 7.81809 6.37399 7.44462C6.71012 7.07115 7.17864 6.84348 7.67998 6.81001C8.18132 6.84348 8.64984 7.07115 8.98597 7.44462C9.32209 7.81809 9.49932 8.30793 9.47998 8.81001C9.49932 9.31209 9.32209 9.80193 8.98597 10.1754C8.64984 10.5489 8.18132 10.7765 7.67998 10.81ZM14.32 10.81C13.8196 10.7741 13.3525 10.5457 13.0169 10.1728C12.6813 9.79987 12.5032 9.31143 12.52 8.81001C12.5006 8.30793 12.6779 7.81809 13.014 7.44462C13.3501 7.07115 13.8186 6.84348 14.32 6.81001C14.8222 6.84098 15.2923 7.06791 15.6289 7.44196C15.9656 7.816 16.1419 8.30726 16.12 8.81001C16.1419 9.31276 15.9656 9.80402 15.6289 10.1781C15.2923 10.5521 14.8222 10.779 14.32 10.81Z" fill="#939393"/>
</svg>
