<svg width="16" height="20" viewBox="0 0 16 20" fill="none" xmlns="http://www.w3.org/2000/svg">
<path d="M8.24001 0.399994C2.96001 0.399994 0.200012 3.75999 0.200012 7.47999C0.200012 9.27999 1.16001 11.08 2.72001 12.04C3.20001 12.28 3.08001 12.04 3.44001 10.6C3.44001 10.48 3.44001 10.36 3.32001 10.24C1.16001 7.59999 2.96001 2.43999 8.00001 2.43999C15.32 2.43999 13.88 12.52 9.32001 12.52C8.36001 12.64 7.52001 11.92 7.52001 10.96V10.48C8.00001 9.15999 8.36001 7.95999 8.48001 6.63999C8.48001 4.11999 4.76001 4.47999 4.76001 7.83999C4.76001 8.43999 4.88001 9.03999 5.12001 9.51999C5.12001 9.51999 3.92001 14.44 3.68001 15.28C3.44001 16.72 3.56001 18.16 3.80001 19.48C3.68001 19.6 3.80001 19.6 3.80001 19.6H3.92001C4.76001 18.4 5.48001 17.2 5.96001 15.88C6.08001 15.28 6.68001 13.12 6.68001 13.12C7.28001 13.96 8.36001 14.44 9.44001 14.44C13.16 14.44 15.8 11.2 15.8 7.23999C15.8 3.27999 12.44 0.399994 8.24001 0.399994Z" fill="#939393"/>
</svg>
