<svg width="16" height="18" viewBox="0 0 16 18" fill="none" xmlns="http://www.w3.org/2000/svg">
<path d="M15.2 7.83999V4.99999C13.87 4.99999 12.855 4.64499 12.2 3.95499C11.5277 3.16751 11.1511 2.17026 11.135 1.13499V0.92999L8.44999 0.86499C8.44999 0.86499 8.44999 0.97999 8.44999 1.13499V12.4C8.35789 12.9033 8.11358 13.3662 7.75006 13.7262C7.38654 14.0862 6.9213 14.3261 6.41716 14.4133C5.91301 14.5006 5.39424 14.431 4.93086 14.2141C4.46749 13.9972 4.08183 13.6433 3.82595 13.2003C3.57006 12.7572 3.45628 12.2463 3.49996 11.7365C3.54363 11.2268 3.74267 10.7427 4.07019 10.3496C4.39771 9.95652 4.83795 9.67341 5.33147 9.53846C5.82499 9.40352 6.34804 9.42325 6.82999 9.59499V6.84499C6.54899 6.79895 6.26474 6.77554 5.97999 6.77499C4.95548 6.77499 3.95398 7.07879 3.10214 7.64798C2.25029 8.21716 1.58636 9.02617 1.19429 9.97269C0.802232 10.9192 0.699651 11.9607 0.899522 12.9656C1.09939 13.9704 1.59274 14.8934 2.31718 15.6178C3.04161 16.3422 3.9646 16.8356 4.96942 17.0355C5.97424 17.2353 7.01577 17.1327 7.96229 16.7407C8.90881 16.3486 9.71782 15.6847 10.287 14.8328C10.8562 13.981 11.16 12.9795 11.16 11.955C11.1594 11.7427 11.1461 11.5307 11.12 11.32V6.74499C12.3409 7.50746 13.7614 7.88869 15.2 7.83999Z" fill="#939393"/>
</svg>
